<?xml version="1.0" encoding="UTF-8"?>
<!DOCTYPE svg PUBLIC "-//W3C//DTD SVG 1.1//EN" "http://www.w3.org/Graphics/SVG/1.1/DTD/svg11.dtd">
<!-- Creator: CorelDRAW -->
<svg xmlns="http://www.w3.org/2000/svg" xml:space="preserve" width="500px" height="420px" version="1.1" style="shape-rendering:geometricPrecision; text-rendering:geometricPrecision; image-rendering:optimizeQuality; fill-rule:evenodd; clip-rule:evenodd"
viewBox="0 0 50000 41991"
 xmlns:xlink="http://www.w3.org/1999/xlink"
 xmlns:xodm="http://www.corel.com/coreldraw/odm/2003">
 <defs>
  <style type="text/css">
   <![CDATA[
    .fil2 {fill:#FEFEFE;fill-rule:nonzero}
    .fil1 {fill:#FEFCF7;fill-rule:nonzero}
    .fil0 {fill:#1D1D1D;fill-rule:nonzero}
   ]]>
  </style>
 </defs>
 <g id="Camada_x0020_1">
  <metadata id="CorelCorpID_0Corel-Layer"/>
  <g id="_1421523599888">
   <path class="fil0" d="M4659 37472l-91 0c-199,447 -512,738 -844,738l-2075 0c-81,0 -126,-51 -126,-225l0 -3850c0,-412 160,-578 451,-679l0 -117 -1974 0 0 117c298,109 445,252 445,679l0 3878c0,355 -177,515 -445,601l0 109 4403 0 256 -1251zm5093 -3604c199,0 257,449 273,665l86 0 137 -1251 -56 0c-52,65 -133,72 -201,57l-4385 0 0 117c291,101 451,252 451,679l0 3821c0,406 -160,564 -451,658l0 109 4494 0 268 -1251 -91 0c-97,303 -354,738 -753,738l-2310 0c-29,0 -56,-51 -56,-139l0 -1838 1430 0c519,0 553,392 571,521l68 0 119 -1606 -84 0c-58,326 -137,558 -313,558l-1791 0 0 -1838 2594 0zm7550 189c0,-363 165,-515 434,-601l0 -117 -1563 0 0 117c261,86 444,238 444,601l0 2763 -3609 -3481 -1403 0 0 117c257,86 444,238 444,587l0 3964c0,369 -176,521 -444,601l0 115 1567 0 0 -109c-266,-86 -433,-238 -433,-607l0 -3415 4466 4291 97 0 0 -4826zm6135 3790c52,86 68,166 68,240 0,275 -291,462 -485,527l0 109 2429 0 0 -109c-205,-71 -512,-246 -763,-738l-2309 -4537 -1552 0 0 117c52,0 406,129 468,275l28 57 -1904 3690c-456,884 -855,1071 -1072,1136l0 109 1995 0 0 -109c-205,-65 -598,-283 -427,-629l302 -593 2994 0 228 455zm-1717 -3415l1146 2279 -2310 0 1164 -2279zm4631 3292c-132,730 -331,833 -496,890l0 109 1356 0 0 -109c-187,-51 -291,-166 -291,-469 0,-117 12,-269 47,-449l547 -3169 1905 4268 97 0 2006 -4320 582 3214c41,230 63,404 63,542 0,254 -79,346 -268,383l0 109 1791 0 0 -109c-273,-100 -388,-223 -530,-990l-650 -3532c-74,-375 154,-550 404,-636l0 -117 -1471 0 -1699 3598 -1608 -3598 -1523 0 0 117c228,86 485,224 404,658l-666 3610zm8269 -1614c0,1731 1597,2744 3257,2744 1710,0 3359,-1072 3359,-2896 0,-1778 -1604,-2742 -3269,-2742 -1721,0 -3347,1079 -3347,2894zm1220 -152c0,-1316 866,-2221 2025,-2221 1368,0 2150,978 2150,2373 0,1333 -895,2229 -2048,2229 -1362,0 -2127,-976 -2127,-2381zm6821 1766c-132,730 -331,833 -496,890l0 109 1356 0 0 -109c-187,-51 -291,-166 -291,-469 0,-117 12,-269 47,-449l547 -3169 1905 4268 97 0 2006 -4320 582 3214c41,230 63,404 63,542 0,254 -79,346 -268,383l0 109 1791 0 0 -109c-273,-100 -388,-223 -530,-990l-650 -3532c-74,-375 154,-550 404,-636l0 -117 -1471 0 -1699 3598 -1608 -3598 -1523 0 0 117c228,86 485,224 404,658l-666 3610z"/>
   <path class="fil0" d="M4263 41486l198 472 221 0 -757 -1777 -227 0 -756 1777 221 0 198 -472 902 0zm-79 -188l-744 0 195 -467c66,-161 171,-412 173,-414l5 0c3,2 106,253 176,416l195 465z"/>
   <path class="fil0" d="M7322 41404c-111,239 -350,389 -640,389 -391,0 -696,-277 -696,-726 0,-447 290,-727 701,-727 371,0 546,224 612,346l201 -56c-112,-261 -396,-485 -808,-485 -520,0 -914,360 -914,919 0,561 396,927 914,927 376,0 694,-198 831,-533l-201 -54zm1524 554l1201 0 0 -193 -996 0 0 -640 773 0 0 -193 -773 0 0 -558 991 0 0 -193 -1196 0 0 1777zm2432 -467c57,401 399,500 699,500 396,0 630,-171 630,-505 0,-391 -325,-475 -589,-526 -254,-51 -477,-102 -477,-338 0,-180 129,-292 388,-292 261,0 406,114 454,310l198 -53c-76,-305 -319,-442 -650,-442 -373,0 -601,175 -601,485 0,360 309,447 551,502 220,48 515,64 515,356 0,214 -157,317 -416,317 -272,0 -483,-113 -503,-368l-199 54zm2522 0c56,401 399,500 699,500 396,0 630,-171 630,-505 0,-391 -326,-475 -590,-526 -254,-51 -477,-102 -477,-338 0,-180 130,-292 389,-292 261,0 406,114 454,310l198 -53c-76,-305 -320,-442 -650,-442 -373,0 -602,175 -602,485 0,360 310,447 552,502 220,48 515,64 515,356 0,214 -158,317 -417,317 -271,0 -482,-113 -502,-368l-199 54zm3512 -1448l241 -352 -170 -57 -264 409 193 0zm-982 1024c0,553 401,924 922,924 517,0 921,-371 921,-924 0,-552 -404,-922 -921,-922 -521,0 -922,370 -922,922zm208 0c0,-450 312,-727 714,-727 398,0 713,275 713,727 0,452 -315,726 -713,726 -402,0 -714,-274 -714,-726zm3933 891l249 0 -439 -736c251,-54 406,-213 406,-488 0,-348 -247,-553 -663,-553l-543 0 0 1777 205 0 0 -696 219 0c38,0 124,0 163,-2l403 698zm-785 -869l0 -718 346 0c277,0 445,119 445,370 0,257 -173,348 -432,348l-359 0zm2340 869l205 0 0 -1777 -205 0 0 1777zm1513 -891c0,553 401,924 922,924 517,0 921,-371 921,-924 0,-552 -404,-922 -921,-922 -521,0 -922,370 -922,922zm208 0c0,-450 312,-727 714,-727 399,0 713,275 713,727 0,452 -314,726 -713,726 -402,0 -714,-274 -714,-726zm2836 424c56,401 399,500 699,500 396,0 630,-171 630,-505 0,-391 -326,-475 -590,-526 -254,-51 -477,-102 -477,-338 0,-180 129,-292 389,-292 261,0 406,114 454,310l198 -53c-77,-305 -320,-442 -650,-442 -373,0 -602,175 -602,485 0,360 310,447 551,502 221,48 516,64 516,356 0,214 -158,317 -417,317 -271,0 -482,-113 -502,-368l-199 54zm4279 -1310l0 1777 632 0c531,0 927,-333 927,-881 0,-549 -393,-896 -945,-896l-614 0zm205 1584l0 -1391 402 0c414,0 744,243 744,703 0,462 -333,688 -729,688l-417 0zm2662 193l1201 0 0 -193 -995 0 0 -640 772 0 0 -193 -772 0 0 -558 990 0 0 -193 -1196 0 0 1777zm4191 0l1142 0 0 -193 -937 0 0 -1584 -205 0 0 1777z"/>
   <path class="fil0" d="M41680 40181l-205 0 0 1036c0,385 -161,576 -505,576 -344,0 -501,-191 -501,-576l0 -1036 -211 0 0 1036c0,502 249,774 712,774 459,0 710,-272 710,-774l0 -1036z"/>
   <path class="fil0" d="M44268 41958l258 0 -680 -922 627 -855 -246 0 -302 426c-135,188 -193,277 -195,277l-3 0c-3,0 -67,-86 -206,-277l-313 -426 -251 0 633 853 -688 924 251 0 320 -442c160,-218 234,-317 236,-317l3 0c2,0 71,99 228,312l328 447z"/>
   <path class="fil0" d="M45606 41067c0,553 401,924 922,924 517,0 921,-371 921,-924 0,-552 -404,-922 -921,-922 -521,0 -922,370 -922,922zm208 0c0,-450 312,-727 714,-727 399,0 713,275 713,727 0,452 -314,726 -713,726 -402,0 -714,-274 -714,-726z"/>
   <path class="fil0" d="M15186 17481c0,0 119,87 356,122 238,35 -82,137 -82,137 0,0 -280,6 -288,5 -8,-1 -115,-190 -115,-190l54 -92 75 18z"/>
   <path class="fil0" d="M14543 17402c-18,-3 -35,9 -40,27 -16,58 -81,166 -110,196 -41,41 364,502 364,502 0,0 821,-99 1436,-136 0,0 -739,-314 -1012,-424 -226,-91 -531,-146 -638,-165z"/>
   <path class="fil0" d="M22303 224c0,0 -3806,12975 -7790,17188 -8,8 -8,11 -2,15l8 9c100,93 350,330 450,423 222,-286 444,-573 666,-859 55,-71 105,-144 151,-220 394,-650 2342,-3881 2942,-5258 0,0 2148,-4624 2698,-6239 21,-64 41,-123 57,-178 433,-1417 1103,-3306 1103,-3306l354 -1338c0,0 54,-296 -108,-424 0,0 -183,-83 -404,0 0,0 -82,64 -125,187z"/>
   <path class="fil0" d="M14393 17625c0,0 -482,522 -1073,689 0,0 -2145,443 -2627,1437 0,0 -366,781 544,923 153,24 308,16 459,-16 128,-27 307,-68 485,-116 343,-92 653,-277 897,-535 500,-529 1489,-1588 1679,-1880l-364 -502z"/>
   <path class="fil0" d="M15344 17661c-43,-30 3584,-643 7894,-821 0,0 2570,-19 6644,178 0,0 1714,36 3137,254 68,10 125,65 129,134l0 3 0 3c-5,84 -77,148 -160,143 -825,-45 -5725,-281 -9015,-266 0,0 -4235,182 -7780,702 -20,3 -41,1 -61,-4 -115,-31 -534,-151 -788,-326z"/>
   <path class="fil0" d="M28466 23126c-7,-2 -12,-7 -14,-10 -25,-28 -26,-55 -34,-125 -4,-32 -5,-65 -4,-97 3,-51 9,-113 15,-163 5,-36 12,-70 20,-105l613 -2403c19,-79 39,-162 51,-232l116 -620c19,-110 15,-283 -60,-365 -132,-146 -411,-236 -1030,484 -79,92 -149,192 -211,297l-1123 1891c0,0 -188,360 -217,43 -6,-66 5,-134 28,-196l746 -2003c68,-182 124,-368 168,-558 123,-537 341,-1643 252,-2466 0,0 92,-1758 -2401,-1535 0,0 -2414,236 -5419,2296 0,0 -2587,1850 -3725,4034 -140,269 -222,565 -235,867 -2,45 -4,92 -4,140l0 376c1,21 17,53 45,61 113,26 396,-180 401,-264 46,-864 692,-3572 6206,-6314l69 -31c0,0 1585,-822 2818,-927l0 0c14,0 646,-11 971,184 0,0 433,131 701,969 97,304 119,628 74,945 -116,825 -465,2746 -1372,4679l-2518 5489 -2 5c-9,30 -86,306 45,366 0,0 118,69 246,-98l3218 -5531 1451 -2244c23,-36 61,-61 103,-68 135,-23 199,29 161,571 -11,161 -36,320 -73,476 -163,673 -659,2728 -695,2880 -1,7 -1,12 -2,19 2,56 28,336 286,273 48,-12 89,-42 119,-81 489,-649 5223,-6896 6718,-7999 107,-86 212,-171 318,-256l3 -2c10,-11 504,-543 2516,-1842l9 -6c98,-71 1780,-1203 1466,134l0 0 0 0c-114,342 -975,2944 -1279,3863 -68,206 -149,408 -241,605 -616,1325 -943,2282 -1870,4262l-3 5 -2734 5309 -2 5c-21,63 -151,458 302,311 33,-25 26,-21 34,-30 149,-282 2364,-4469 3182,-6332l1869 -4192c0,0 965,-2500 1260,-3917l0 0c0,-2 235,-1456 -1515,-886l0 0c-1,0 -2126,807 -5275,4350 7,2 -2363,2670 -4118,5261 -18,26 -37,51 -58,74 -86,98 -132,167 -218,265 -18,21 -61,62 -79,82 -21,24 -49,35 -69,27z"/>
   <polygon class="fil0" points="23907,10182 27903,14551 31991,10182 30791,8548 24906,8548 "/>
   <polygon class="fil1" points="26352,10280 27949,13843 29452,10280 "/>
   <path class="fil1" d="M26796 9840c208,-152 983,-811 1093,-905 8,-7 19,-7 28,-1l1257 904c4,3 2,9 -3,9l-2372 0 -3 -7z"/>
   <path class="fil1" d="M24331 9839l578 -796c9,-12 26,-13 36,-2l751 778c10,11 2,28 -12,28l-1349 0 -4 -8z"/>
   <path class="fil1" d="M30040 9839l772 -906c4,-5 12,-5 16,0l756 897c5,7 0,17 -8,17l-1532 0c-4,0 -6,-5 -4,-8z"/>
   <path class="fil0" d="M28011 7797l-282 0c-20,0 -36,-16 -36,-36l0 -2939c0,-20 16,-36 36,-36l282 0c20,0 36,16 36,36l0 2939c0,20 -16,36 -36,36z"/>
   <path class="fil0" d="M29445 7062l-260 -108c-19,-7 -28,-29 -20,-47l701 -1700c8,-19 29,-28 48,-20l260 107c19,8 27,29 20,48l-701 1700c-8,19 -29,27 -48,20z"/>
   <path class="fil0" d="M25109 7892l-194 194c-16,15 -41,15 -57,0l-1278 -1279c-16,-15 -16,-41 0,-56l194 -194c15,-16 41,-16 56,0l1279 1278c15,16 15,41 0,57z"/>
   <path class="fil0" d="M26631 7180l-262 121c-20,10 -44,1 -53,-19l-457 -987c-10,-20 -1,-44 19,-53l262 -121c20,-10 44,-1 54,19l456 987c10,20 1,44 -19,53z"/>
   <path class="fil0" d="M30794 7884l-191 -217c-15,-16 -13,-42 3,-56l815 -720c17,-15 42,-13 57,4l191 216c14,17 13,42 -4,57l-815 719c-16,15 -42,13 -56,-3z"/>
   <path class="fil0" d="M25388 6498l-117 0c-22,0 -40,-18 -40,-40l0 -1620c0,-23 18,-40 40,-40l117 0c22,0 40,17 40,40l0 1620c0,22 -18,40 -40,40z"/>
   <path class="fil0" d="M24479 5706l0 -116c0,-23 18,-40 40,-40l1621 0c22,0 40,17 40,40l0 116c0,22 -18,40 -40,40l-1621 0c-22,0 -40,-18 -40,-40z"/>
   <path class="fil0" d="M32186 7240l-117 0c-22,0 -40,-18 -40,-40l0 -1621c0,-22 18,-40 40,-40l117 0c22,0 40,18 40,40l0 1621c0,22 -18,40 -40,40z"/>
   <path class="fil0" d="M31277 6448l0 -117c0,-22 18,-40 40,-40l1621 0c22,0 40,18 40,40l0 117c0,22 -18,40 -40,40l-1621 0c-22,0 -40,-18 -40,-40z"/>
   <path class="fil2" d="M13022 19322c-26,25 -55,52 -89,85 -123,122 -487,515 -922,747 -119,63 -250,102 -384,115 -73,8 -159,11 -251,4 0,0 -328,-49 -218,-268 4,-7 378,-556 1062,-888 0,0 110,-77 517,-198 12,-3 88,-23 100,-24l426 -142c0,0 420,-71 -241,569z"/>
  </g>
 </g>
</svg>
