<?xml version="1.0" encoding="UTF-8"?>
<!DOCTYPE svg PUBLIC "-//W3C//DTD SVG 1.1//EN" "http://www.w3.org/Graphics/SVG/1.1/DTD/svg11.dtd">
<!-- Creator: CorelDRAW -->
<svg xmlns="http://www.w3.org/2000/svg" xml:space="preserve" width="820px" height="613px" version="1.1" style="shape-rendering:geometricPrecision; text-rendering:geometricPrecision; image-rendering:optimizeQuality; fill-rule:evenodd; clip-rule:evenodd"
viewBox="0 0 81866 61226"
 xmlns:xlink="http://www.w3.org/1999/xlink"
 xmlns:xodm="http://www.corel.com/coreldraw/odm/2003">
 <defs>
  <style type="text/css">
   <![CDATA[
    .str0 {stroke:#FAB060;stroke-width:590;stroke-miterlimit:22.9256}
    .str2 {stroke:#FEFEFE;stroke-width:236;stroke-miterlimit:22.9256}
    .str1 {stroke:#373435;stroke-width:236;stroke-miterlimit:22.9256}
    .fil3 {fill:none}
    .fil2 {fill:#A45E4D}
    .fil1 {fill:#5D7E7E}
    .fil0 {fill:#F2A800}
   ]]>
  </style>
 </defs>
 <g id="Camada_x0020_1">
  <metadata id="CorelCorpID_0Corel-Layer"/>
  <g id="_2349769512016">
   <polygon class="fil0 str0" points="60342,17344 60766,17793 61189,18242 61590,18712 61991,19160 62370,19630 62749,20122 63105,20613 63484,21126 63819,21617 64131,22130 64443,22664 64754,23199 65044,23733 65312,24288 65579,24865 65824,25399 66069,25976 66270,26553 66493,27130 66671,27728 66849,28305 67028,28925 67183,29523 67317,30121 67429,30741 67540,31382 67629,31980 67696,32600 67763,33241 67807,33882 67830,34523 67830,35164 67807,36510 67696,37813 67518,39116 67273,40377 66983,41616 66626,42834 66203,44031 65713,45206 65178,46338 64576,47449 63930,48517 63239,49586 62482,50590 61679,51573 60833,52492 59941,53389 59005,54244 58047,55056 57022,55825 55975,56530 54883,57192 53746,57833 52588,58410 51384,58923 50181,59372 48911,59778 47641,60119 46348,60418 45033,60632 43674,60803 42315,60889 40933,60931 39529,60889 38170,60803 36833,60632 35496,60418 34203,60119 32933,59778 31663,59372 30460,58923 29256,58410 28098,57833 26983,57192 25891,56530 24822,55825 23819,55056 22839,54244 21903,53389 21011,52492 20165,51573 19362,50590 18627,49586 17914,48517 17268,47449 16666,46338 16131,45206 15663,44031 15240,42834 14861,41616 14571,40377 14326,39116 14170,37813 14059,36510 14014,35164 14014,34629 14059,34074 14059,33540 14126,32984 14170,32450 14237,31916 14304,31382 14393,30869 14504,30335 14594,29822 14727,29288 14861,28775 14995,28284 15151,27771 15329,27258 15485,26788 15663,26275 15864,25805 16064,25314 16287,24844 16510,24352 16733,23904 16978,23434 17223,22985 17490,22515 17758,22087 18025,21639 18315,21211 18627,20784 18917,20357 19229,19951 19563,19524 20967,19374 22371,19224 23752,19075 25156,18925 26538,18797 27942,18669 29323,18541 30727,18413 32131,18306 33512,18199 34894,18092 36298,17985 37702,17900 39083,17814 40487,17729 41869,17665 43028,17601 44186,17558 45323,17515 46482,17472 47641,17430 48799,17408 49936,17387 51094,17344 52253,17344 53390,17323 54571,17301 55707,17301 56866,17301 58025,17323 59184,17344 "/>
   <path class="fil1" d="M37837 16928l177 22 200 21 178 42 177 43 178 43 155 64 178 63 155 64 333 128 311 191 289 171 288 213 -155 21 643 1319 400 -63 -400 -873 178 191 155 192 178 192 178 212 155 213 155 234 134 213 155 256 133 234 133 255 133 255 134 256 244 553 222 554 200 595 199 596 200 618 156 617 155 660 133 638 133 660 133 660 -199 -405 -422 64 821 1596 156 1107 133 1085 133 1065 111 1021 111 979 111 937 111 872 111 809 22 64 22 21 22 43 23 42 66 43 89 64 89 42 133 22 155 21 156 21 -333 43 621 1234 400 -64 -622 -1213 111 0 133 -21 134 -21 111 -22 466 915 399 -63 -466 -916 244 -63 222 -43 244 -85 222 -64 222 -85 222 -85 222 -85 200 -107 178 -106 177 -85 156 -128 133 -106 111 -107 89 -106 22 -64 44 -43 22 -64 0 -42 45 -298 22 -277 0 -276 0 -277 -44 -298 -45 -277 -44 -276 -89 -298 -89 -277 -111 -277 -89 -276 -133 -298 -222 -554 -266 -553 -266 -575 -267 -553 -266 -575 -222 -553 -111 -277 -89 -298 -89 -276 -88 -298 -45 -277 -44 -277 -22 -298 -23 -276 23 -171 22 -191 66 -170 67 -192 111 -192 111 -149 133 -191 155 -170 178 -149 200 -128 200 -149 199 -106 245 -107 244 -64 133 -21 111 -43 155 -21 133 0 111 0 134 0 111 21 111 0 111 43 88 21 111 43 89 64 200 85 178 106 155 128 133 149 133 170 133 149 111 170 111 192 178 319 155 319 311 703 289 681 288 660 267 681 244 638 222 639 222 617 177 617 89 298 67 277 66 298 45 298 44 276 44 256 23 276 22 277 0 277 0 255 -22 256 -23 234 -22 255 -66 234 -45 234 -88 234 -711 -1426 -399 64 821 1618 200 -21 -134 276 -155 277 -155 255 -222 256 -222 234 -244 255 -267 213 -310 234 -333 192 -356 213 -377 191 -422 170 -444 192 -466 170 -533 149 -532 128 -755 -1426 -400 64 777 1468 -333 64 -333 85 -332 64 -333 43 -356 64 -377 42 -377 64 -400 42 22 426 23 426 22 425 22 426 0 426 22 425 22 447 23 426 -467 -873 -399 64 866 1703 22 255 0 277 0 255 0 256 0 255 0 256 -22 255 0 255 -533 -957 -377 63 887 1703 -44 447 -22 404 -45 426 -66 447 -45 404 -66 426 -67 426 -89 425 -88 426 -89 426 -111 425 -133 426 -133 404 -134 447 -155 405 -178 425 -199 -298 -400 64 422 639 -156 362 -199 383 -200 361 -200 362 -222 383 -222 362 -244 383 -266 362 -45 64 -22 43 -44 63 -45 64 -155 107 -133 85 -200 85 -200 85 -222 43 -222 63 -599 -1191 -333 42 399 -936 67 0 -44 -64 266 -639 688 1341 400 -64 -888 -1745 44 -106 311 -852 488 937 400 -64 -710 -1341 399 -1085 155 -532 910 1745 400 -64 -954 -1852 -289 43 155 -553 156 -447 155 -43 -89 -191 134 -511 332 -1213 289 -1213 244 -1192 222 -1192 178 -1213 133 -1064 910 1809 400 -64 -1021 -2022 -267 42 45 -383 222 -42 -200 -383 22 -298 67 -1022 22 21 399 -63 -377 -745 0 -596 0 -1213 -22 -1214 -89 -1085 222 -43 -266 -489 -67 -788 -155 -1191 -178 -1213 -222 -1192 -266 -1192 -289 -1086 400 -42 -933 -1873 -199 -617 -134 -362 378 -43 -999 -1979 -111 21 -22 -64 -489 -1191 -532 -1213 -577 -1192 -666 -1320 -400 64 666 1319 577 1214 533 1192 488 1191 466 1213 422 1192 155 532 -22 0 67 107 177 553 333 1213 311 1192 244 1192 245 1213 177 1192 111 936 -222 -468 -400 64 733 1469 44 383 67 1213 22 723 -577 -1128 -266 43 -23 -255 -88 -1171 -156 -1171 -199 -1170 -222 -1171 -89 -447 200 405 399 -64 -999 -1979 0 21 -66 -277 -311 -1021 621 1213 400 -64 -999 -1979 -266 42 -178 -532 -422 -1171 -443 -1170 -511 -1171 -533 -1170 -577 -1171 -666 -1277 -422 43 689 1319 577 1171 532 1149 511 1171 444 1170 44 85 -910 -1787 -399 64 999 1979 377 -64 311 873 377 1170 333 1171 311 1170 266 1171 111 596 -488 -958 -400 64 999 1979 89 0 89 639 155 1170 111 1171 67 1149 22 745 -844 -1681 -399 42 999 1980 266 -43 0 128 0 1170 -44 1171 -45 1170 -111 1065 -466 -894 -400 63 222 405 -332 42 821 1597 0 42 -67 447 -22 -21 -400 64 311 596 0 85 -177 1000 -356 64 245 447 -156 724 -932 -1788 -400 42 955 1873 355 -42 0 21 -266 1043 -178 42 111 213 -288 1043 -356 1149 -377 1171 -422 1171 -266 659 -44 -106 -400 64 244 510 0 43 -488 1149 -577 1298 399 64 577 -1298 356 -809 399 788 -555 1255 378 64 111 -234 577 1107 -444 64 -400 21 -422 0 -377 0 -178 -21 -155 0 -155 -43 -156 -42 -177 -22 -156 -63 -133 -43 -155 -85 -133 -64 -111 -85 -111 -85 -89 -64 -67 -106 -44 -86 -44 -85 0 -106 0 -256 0 -276 44 -277 0 -277 22 -276 45 -277 22 -255 22 -277 799 1554 422 -64 -977 -1873 -200 42 111 -702 133 -702 134 -703 133 -702 155 -724 178 -702 155 -681 178 -724 177 -702 156 -681 177 -702 156 -724 155 -681 133 -702 156 -703 111 -702 799 1575 421 -64 -954 -1873 -200 21 67 -446 44 -447 45 -469 66 -468 22 -447 23 -447 0 -468 0 -447 0 -447 -23 -468 -22 -447 -66 -447 -45 -447 -89 -468 -88 -447 -111 -468 266 -43 -999 -1958 -399 64 976 1915 -399 86 -400 85 -422 64 -399 42 -378 -681 -399 64 355 681 -511 42 -510 0 -511 0 -510 -21 -511 -42 -510 -43 -511 -85 -466 -85 -488 -107 -489 -149 -466 -149 -466 -170 -444 -170 -444 -192 -421 -234 -400 -255 466 -107 -133 -212 -622 127 0 22 -443 -469 -444 -446 -178 -213 -222 -234 -177 -213 -178 -234 -178 -256 -177 -213 -133 -255 -156 -234 -155 -234 -111 -256 -111 -255 -133 -255 -89 -256 -111 -255 -67 -277 -66 -277 -67 -276 -67 -298 -22 -298 -44 -298 -22 -319 0 -320 0 -319 22 -340 44 -341 22 -362 67 -362 67 -383 88 -170 112 -149 133 -170 133 -170 488 872 400 -64 -533 -979 -200 22 200 -171 222 -149 244 -170 244 -128 156 -63 133 -43 133 -64 155 -42 156 -22 155 -42 156 -22 155 -21 155 0 156 21 155 22 133 64 134 63 111 86 110 106 111 85 89 106 67 128 89 107 88 127 111 234 111 213 -44 85 -22 107 0 127 0 128 0 341 22 425 67 469 88 510 45 298 66 277 45 277 88 298 89 298 111 298 111 298 111 297 111 298 156 277 155 298 155 277 178 298 177 255 223 256 199 255 222 255 244 213 267 213 266 191 -244 43 644 1256 399 -64 -532 -1085 288 170 333 149 133 42 178 64 177 43 178 42 177 43 178 21 178 21 199 43 200 0 200 0 200 0 222 0 865 1788 400 -64 -866 -1767 289 -42 311 -43 333 -85 310 -85 333 -85 355 -128 356 -127 355 -171 89 -319 88 -319 67 -319 22 -320 622 1150 399 -64 -755 -1405 -244 43 -22 -383 -44 -384 -67 -361 -66 -384 -111 -383 -156 -383 -133 -362 -178 -383 -177 -361 -200 -383 -222 -362 -222 -383 -466 -767 -511 -744 -510 -767 -511 -745 -244 -383 -244 -362 -244 -383 -222 -383 -222 -383 -200 -383 -200 -383 -177 -383 -156 -383 -133 -383 -133 -405 -89 -361 -22 -107 0 -106 -22 -107 22 -106 0 -107 44 -85 23 -85 44 -85 44 -85 67 -85 67 -85 66 -85 89 -64 89 -64 89 -64 88 -64 222 -106 222 -107 267 -64 266 -63 289 -43 288 0 311 0 333 21zm577 40034l466 681 400 -64 -444 -681 -422 64zm-888 -39885l1177 2278 399 -64 -1176 -2278 -400 64zm1421 2384l999 1979 399 -63 -999 -1959 -399 43zm-3463 -1830l999 2064 399 -64 -976 -2064 -422 64zm5660 2979l999 1980 400 -64 -977 -1979 -422 63zm-4817 -106l999 1979 400 -64 -999 -1979 -400 64zm1554 1937l999 1979 400 -64 -1021 -1979 -378 64zm-8679 1043l755 1447 400 -64 -755 -1447 -400 64zm22 1468l1021 2086 400 -64 -1021 -2086 -400 64zm555 2022l1021 2086 378 -64 -999 -2086 -400 64zm955 2192l1021 2086 399 -64 -1021 -2086 -399 64zm-1887 -1426l44 234 67 234 89 256 66 234 89 213 89 213 111 234 89 212 133 192 111 213 111 191 155 213 133 192 156 170 155 192 178 191 155 -85 156 -64 -156 -191 -155 -192 -155 -191 -134 -192 -133 -213 -133 -213 -111 -191 -111 -213 -89 -192 -89 -212 -88 -213 -89 -213 -67 -234 -66 -192 -67 -234 -44 -213 -111 0 -89 22 -89 21 -111 21zm-399 1256l1021 2085 421 -63 -1043 -2086 -399 64zm-511 -766l289 553 421 -64 -310 -553 -400 64zm932 -3001l-133 787 422 43 133 -788 -422 -42zm12297 7789l999 1980 400 -64 -977 -1979 -422 63zm-1509 0l999 1980 399 -64 -998 -1979 -400 63zm-4506 341l999 1958 399 -43 -998 -1979 -400 64zm-3418 85l799 1447 399 -42 -799 -1448 -399 43zm8768 2490l998 1979 400 -63 -999 -1980 -399 64zm10388 -10578l976 1980 400 -64 -999 -1979 -377 63zm-2220 -85l999 1958 399 -42 -1021 -1980 -377 64zm178 2065l998 1979 400 -64 -977 -1979 -421 64zm2930 872l999 1980 377 -64 -999 -1980 -377 64zm-3108 937l999 1979 399 -64 -1021 -1979 -377 64zm3929 1936l999 1980 399 -64 -999 -1979 -399 63zm-2109 405l999 1979 400 -64 -977 -1979 -422 64zm-444 1383l999 1958 400 -63 -999 -1959 -400 64zm1399 1916l999 1979 399 -64 -999 -1979 -399 64zm-1243 851l999 1979 399 -63 -999 -1958 -399 42zm-1865 788l599 1170 400 -64 -599 -1170 -400 64zm-1731 2468l288 575 378 -42 -267 -596 -399 63zm-2842 -893l644 1255 -22 554 -44 787 -444 -894 -245 43 23 -639 0 -1170 -45 -1171 -44 -596 843 1660 0 596 -266 -489 -400 64zm-2419 787l1043 2001 400 -64 -1043 -2001 -400 64zm-1287 7619l954 1873 400 -64 -955 -1873 -399 64zm4039 2065l955 1851 399 -42 -954 -1873 -400 64zm-4372 298l954 1873 400 -64 -955 -1873 -399 64zm3640 1724l932 1873 422 -64 -955 -1873 -399 64zm-4439 319l954 1873 400 -64 -955 -1873 -399 64zm2486 1681l266 447 -44 64 -444 1192 -45 106 -66 22 44 63 -266 618 -400 -788 422 -1064 422 -1171 399 -1170 355 -1171 156 -532 444 852 -200 638 -400 1213 -222 639 -22 -22 -399 64zm1398 -3065l-466 -893 22 -43 289 -1192 66 -276 444 830 45 0 -67 340 -333 1213 0 21zm533 -2043l-511 -957 67 -298 133 -660 422 787 111 -21 -133 766 -89 383zm333 -1532l-533 -1000 111 -703 266 -64 -199 -383 0 -21 310 -64 -244 -468 67 -532 111 -1171 66 -1170 0 -192 666 1256 -66 873 -178 1191 -155 1192 -222 1213 0 43z"/>
   <path class="fil2 str1" d="M75736 19917c-24956,-1576 -48757,-106 -71687,3657 1779,-2009 1270,-3054 6357,-7980 10024,-18502 42725,-21063 56440,-4230 3899,2939 6815,1875 8268,6848 145,499 228,846 246,1082 9,116 0,0 90,334 30,112 179,178 286,289z"/>
   <path class="fil3 str1" d="M99 25952c638,-984 2087,-1745 3905,-2405 -151,1601 -1439,3021 -453,4805"/>
   <path class="fil3 str1" d="M4049 23574c-1742,-855 -2978,-1065 -3709,-628"/>
   <path class="fil3 str1" d="M81043 24187c-115,-1832 -2316,-3219 -5465,-4403 1600,-1356 4054,-706 6223,706"/>
   <path class="fil3 str1" d="M75699 19881c-348,3018 2182,3884 3511,6609"/>
   <polygon class="fil2 str2" points="19245,13388 21231,13225 22051,15308 20403,16716 18692,15547 "/>
   <polygon class="fil2 str2" points="20029,9571 21397,13194 19178,13415 "/>
   <polygon class="fil2 str2" points="15227,13445 19032,13378 18655,15643 "/>
   <polygon class="fil2 str2" points="25365,12797 22196,15419 21370,13148 "/>
   <polygon class="fil2 str2" points="23741,19213 20481,16820 22160,15341 "/>
   <polygon class="fil2 str2" points="17704,19391 18655,15643 20481,16820 "/>
   <polygon class="fil2 str2" points="57099,11967 59085,11804 59905,13887 58258,15295 56547,14126 "/>
   <polygon class="fil2 str2" points="57883,8151 59251,11773 57032,11994 "/>
   <polygon class="fil2 str2" points="53081,12024 56886,11957 56509,14222 "/>
   <polygon class="fil2 str2" points="63219,11376 60050,13998 59224,11727 "/>
   <polygon class="fil2 str2" points="61595,17792 58335,15399 60014,13920 "/>
   <polygon class="fil2 str2" points="55558,17970 56509,14222 58335,15399 "/>
   <polygon class="fil2 str2" points="37303,5813 38624,5704 39170,7090 38074,8027 36936,7249 "/>
   <polygon class="fil2 str2" points="37825,3274 38735,5683 37259,5831 "/>
   <polygon class="fil2 str2" points="34630,5851 37162,5806 36911,7313 "/>
   <polygon class="fil2 str2" points="41375,5420 39266,7164 38717,5653 "/>
   <polygon class="fil2 str2" points="40294,9688 38126,8096 39242,7112 "/>
   <polygon class="fil2 str2" points="36278,9807 36911,7313 38126,8096 "/>
  </g>
 </g>
</svg>
